<svg xmlns="http://www.w3.org/2000/svg" viewBox="0 0 237.68 129.89"><defs><style>.cls-1{fill:#fff;}</style></defs><title>Asset 3</title><g id="Layer_2" data-name="Layer 2"><g id="Layer_1-2" data-name="Layer 1"><path class="cls-1" d="M7.1,128a12.53,12.53,0,0,1-5.27-5.46A19,19,0,0,1,0,113.86V93.79a19,19,0,0,1,1.83-8.7A12.55,12.55,0,0,1,7.1,79.6a17.14,17.14,0,0,1,8.3-1.88,15.75,15.75,0,0,1,8,1.9,12.59,12.59,0,0,1,5.08,5.75,26.58,26.58,0,0,1,2.16,9.75H21.27a15.7,15.7,0,0,0-.93-4.58,5.76,5.76,0,0,0-2-2.69,5,5,0,0,0-3-.88,6.15,6.15,0,0,0-3.2.79,5.14,5.14,0,0,0-2.06,2.34,8.67,8.67,0,0,0-.72,3.69v20.07a8.49,8.49,0,0,0,.72,3.69,5.22,5.22,0,0,0,2.06,2.31,6.25,6.25,0,0,0,3.2.79,5.06,5.06,0,0,0,3-.88,6,6,0,0,0,2-2.69,15,15,0,0,0,.91-4.59h9.42a27.21,27.21,0,0,1-2.2,9.76A12.58,12.58,0,0,1,23.43,128a15.65,15.65,0,0,1-8,1.9A17,17,0,0,1,7.1,128Z"/><path class="cls-1" d="M44.69,129.37H35.38V78.25h9.31Z"/><path class="cls-1" d="M51.7,78.25H61l15.54,36.6L75.61,116V78.25h8.57v51.08H74.8L59.4,94l.84-1.16v36.49H51.7Z"/><path class="cls-1" d="M91.89,78.25H101v51.12H91.89Zm3.66,0h24.78v8.89H95.55Zm0,21.3h22v8.83h-22Zm0,20.92h24.78v8.9H95.55Z"/><path class="cls-1" d="M154.76,78.25h10.41v51.12h-8.26V91.68l.45,2.25L148.75,122h-6.4l-8.61-27.35.53-2.95v37.69h-8.34V78.25h10.48l9.14,31.08Z"/><path class="cls-1" d="M184.34,78.25h6.12l15.85,51.12h-9.49L187.4,95.19,178,129.37h-9.5Zm-7,34.35H197.7v8.71H177.31Z"/><path class="cls-1" d="M214,128.61a13.34,13.34,0,0,1-5.4-3.81,14.92,14.92,0,0,1-3-6.3l8.55-3.76a9.15,9.15,0,0,0,3,4.64,7.88,7.88,0,0,0,5,1.58,7.4,7.4,0,0,0,4.71-1.33,4.48,4.48,0,0,0,1.69-3.73v-2.25a4.2,4.2,0,0,0-1-2.85A6.78,6.78,0,0,0,225,109c-1.06-.44-2.44-.91-4.15-1.43a.6.6,0,0,0-.19-.08.32.32,0,0,1-.13-.06l-.45-.1a44.31,44.31,0,0,1-6.84-2.6,11.83,11.83,0,0,1-4.52-4.13,13.34,13.34,0,0,1-1.86-7.48v-1.4a14.76,14.76,0,0,1,1.84-7.56,11.91,11.91,0,0,1,5.37-4.82,20,20,0,0,1,8.54-1.65,17.45,17.45,0,0,1,6.7,1.21,12,12,0,0,1,4.83,3.66,16.78,16.78,0,0,1,2.92,6.06l-8.12,3.8a10,10,0,0,0-2.78-4.39,6,6,0,0,0-4.08-1.51,7.17,7.17,0,0,0-4.53,1.24A4.14,4.14,0,0,0,216,91.22v1.72A4.47,4.47,0,0,0,217,96a7.36,7.36,0,0,0,2.6,1.86,44.76,44.76,0,0,0,4.29,1.57,1.73,1.73,0,0,1,.46.12l.42.16a1.1,1.1,0,0,1,.33.09,1.6,1.6,0,0,0,.3.08,36,36,0,0,1,6.35,2.57,11.59,11.59,0,0,1,4.22,4.06,13.29,13.29,0,0,1,1.7,7.16v2.18a14.35,14.35,0,0,1-1.9,7.55,12,12,0,0,1-5.52,4.82,23.42,23.42,0,0,1-16.27.37Z"/><polygon class="cls-1" points="79.63 26.66 78.83 31.48 81.41 31.21 79.63 26.66"/><path class="cls-1" d="M19.3,37.63a1.23,1.23,0,0,0-.34-.06l-.43-.11a1.84,1.84,0,0,0-.47-.07c-1.88-.4-3.36-.77-4.43-1.11a7.7,7.7,0,0,1-2.78-1.58,4.46,4.46,0,0,1-1.37-3L9.3,30a4.11,4.11,0,0,1,1.22-3.57,7.18,7.18,0,0,1,4.38-1.72,6.06,6.06,0,0,1,4.21,1.08,10.11,10.11,0,0,1,3.22,4.08L30,25.28a16.75,16.75,0,0,0-3.53-5.73,11.94,11.94,0,0,0-5.19-3.13,17.38,17.38,0,0,0-6.79-.51,20,20,0,0,0-8.32,2.54A11.81,11.81,0,0,0,1.35,23.8a14.62,14.62,0,0,0-1,7.71L.45,32.9a14.13,14.13,0,0,0,2.12,6.57l17-1.79Z"/><polygon class="cls-1" points="51.37 16.86 51.85 21.4 62.97 20.24 62.05 11.46 30.72 14.74 31.64 23.52 42.72 22.36 42.25 17.81 51.37 16.86"/><rect class="cls-1" x="43.37" y="21.85" width="9.18" height="12.83" transform="translate(-2.68 5.15) rotate(-5.98)"/><rect class="cls-1" x="42.46" y="17.32" width="9.18" height="4.57" transform="translate(-1.79 5.01) rotate(-5.98)"/><polygon class="cls-1" points="79.63 26.66 81.41 31.21 89.84 30.32 80.9 9.49 74.82 10.12 70.4 32.36 78.83 31.48 79.63 26.66"/><path class="cls-1" d="M118.82,14.35a4.38,4.38,0,0,1,2.35.34,3.77,3.77,0,0,1,1.65,1.52,6.17,6.17,0,0,1,.77,2.52l.3,2.87a5.5,5.5,0,0,1-.25,2.5,3.72,3.72,0,0,1-1.31,1.78,4.43,4.43,0,0,1-2.21.81l-8.22.86,0,.46L133,25.8a16.33,16.33,0,0,0,.27-5.33l-.32-3a14.74,14.74,0,0,0-2.38-6.94,11.12,11.12,0,0,0-5.19-4.14A15.41,15.41,0,0,0,118,5.56l-8.32.88.92,8.77Z"/><rect class="cls-1" x="106.73" y="27.82" width="5.2" height="0.46" transform="translate(-2.33 11.55) rotate(-5.98)"/><polygon class="cls-1" points="106.72 28.1 111.9 27.55 110.61 15.21 105.43 15.75 104.51 6.98 100.67 7.38 102.93 28.95 106.77 28.55 106.72 28.1"/><rect class="cls-1" x="104.96" y="6.68" width="5.2" height="8.82" transform="translate(-0.57 11.27) rotate(-5.98)"/><polygon class="cls-1" points="161.82 22.78 161.37 22.04 161 22.87 161.82 22.78"/><rect class="cls-1" x="140.21" y="2.85" width="9.14" height="21.66" transform="translate(-0.64 15.16) rotate(-5.98)"/><polygon class="cls-1" points="160.28 20.22 161.37 22.04 171.45 0 160.57 1.14 151.62 23.85 156.89 23.3 160.28 20.22"/><polygon class="cls-1" points="156.89 23.3 161 22.87 161.37 22.04 160.28 20.22 156.89 23.3"/><path class="cls-1" d="M3.13,40.73a11.83,11.83,0,0,0,4.52,4.13,43.14,43.14,0,0,0,6.83,2.6l.46.1a.2.2,0,0,0,.12.06.5.5,0,0,1,.2.09c1.71.51,3.09,1,4.15,1.42A6.66,6.66,0,0,1,22,50.9a4.17,4.17,0,0,1,1,2.85V56a4.5,4.5,0,0,1-1.69,3.73,7.43,7.43,0,0,1-4.71,1.33,7.91,7.91,0,0,1-5-1.58,9.21,9.21,0,0,1-3-4.64L0,58.6a14.92,14.92,0,0,0,3,6.3A13.15,13.15,0,0,0,8.4,68.71,20.75,20.75,0,0,0,16,70a20.73,20.73,0,0,0,8.65-1.65,12.11,12.11,0,0,0,5.52-4.81A14.48,14.48,0,0,0,32.1,56V53.79a13.22,13.22,0,0,0-1.71-7.16,11.52,11.52,0,0,0-4.22-4.06A35.19,35.19,0,0,0,19.83,40l-.3-.09a1.1,1.1,0,0,0-.33-.09L19,39.77H2.58A8.89,8.89,0,0,0,3.13,40.73Z"/><rect class="cls-1" x="44.41" y="39.77" width="9.18" height="29.69"/><polygon class="cls-1" points="90.97 52.7 85.47 52.7 87.87 61.42 90.97 61.42 90.97 52.7"/><polygon class="cls-1" points="85.47 52.7 90.97 52.7 90.97 61.42 87.87 61.42 90.09 69.47 99.58 69.47 90.37 39.77 81.9 39.77 85.47 52.7"/><polygon class="cls-1" points="70.58 52.7 70.58 61.42 73.47 61.42 75.87 52.7 70.58 52.7"/><polygon class="cls-1" points="75.87 52.7 73.47 61.42 87.87 61.42 85.47 52.7 75.87 52.7"/><polygon class="cls-1" points="70.58 52.7 75.87 52.7 79.43 39.77 70.96 39.77 61.75 69.47 71.25 69.47 73.47 61.42 70.58 61.42 70.58 52.7"/><path class="cls-1" d="M117.07,48.37,126,69.47h10.48l-9.9-22a16.28,16.28,0,0,1-5.53.89Z"/><path class="cls-1" d="M116.4,46.79l.67,1.58h4a16.28,16.28,0,0,0,5.53-.89l-1-2.31Z"/><rect class="cls-1" x="107.47" y="39.77" width="5.2" height="8.6"/><polygon class="cls-1" points="107.47 39.77 103.6 39.77 103.6 69.47 112.67 69.47 112.67 48.37 107.47 48.37 107.47 39.77"/><path class="cls-1" d="M112.67,48.37h4.4l-.67-1.58,9.14-1.62,1,2.31a14.15,14.15,0,0,0,1.73-.76A11.41,11.41,0,0,0,133,42a13.22,13.22,0,0,0,.9-2.22H112.67Z"/><polygon class="cls-1" points="157 48.46 166.19 69.47 176.66 69.47 162.71 39.77 162.12 39.77 157 48.46"/><polygon class="cls-1" points="148.57 47.67 149.21 61.66 151.39 57.97 151.39 42.27 148.57 47.67"/><polygon class="cls-1" points="148.57 47.67 151.39 42.27 151.39 39.77 142.25 39.77 142.25 69.47 151.39 69.47 151.39 57.97 149.21 61.66 148.57 47.67"/><polygon class="cls-1" points="158.18 39.77 154.41 42.54 157 48.46 162.12 39.77 158.18 39.77"/><polygon class="cls-1" points="158.18 39.77 152.68 39.77 151.39 42.27 151.39 57.97 157 48.46 154.41 42.54 158.18 39.77"/></g></g></svg>